<svg version="1.1" xmlns="http://www.w3.org/2000/svg" viewBox="-3997.2322166356194 -902.1440307617188 8065.584430685913 2135.0400634765624"><desc>Created with Snap</desc><defs></defs><g><g><g transform="matrix(1.024,0,0,-1.024,0,0)"><path d="M263 0L41 0L41 53L121 53L121 510L41 510L41 563L215 563L537 108L537 510L457 510L457 563L678 563L678 510L600 510L600 0L519 0L183 479L183 53L263 53L263 0ZM878 -11Q817 -11 780 23Q743 57 743 106Q743 151 764 178Q786 205 822 217Q858 229 901 229Q935 229 970 223Q1006 218 1040 209L1010 204L1010 257Q1010 304 985 326Q960 348 917 348Q889 348 851 338Q814 329 782 312L760 360Q795 382 839 392Q883 403 918 403Q970 403 1007 386Q1044 369 1063 337Q1083 306 1083 264L1083 53L1145 53L1145 0L1018 0L1012 56L1040 56Q1001 22 964 5Q927 -11 878 -11ZM889 40Q926 40 963 56Q1000 72 1040 105L1010 69L1010 185L1033 167Q1007 175 974 180Q941 185 906 185Q871 185 842 169Q813 154 813 110Q813 80 833 60Q853 40 889 40ZM1187 573L1332 573L1332 338L1308 338Q1340 370 1383 386Q1426 403 1466 403Q1519 403 1562 380Q1606 357 1631 312Q1657 267 1657 202Q1657 135 1628 87Q1600 40 1554 15Q1508 -10 1453 -10Q1410 -10 1374 6Q1338 22 1311 55L1332 45L1332 0L1185 0L1185 53L1258 53L1258 521L1187 521L1187 573ZM1446 346Q1412 346 1375 329Q1338 313 1307 279L1332 319L1332 65L1309 106Q1335 78 1370 61Q1406 45 1440 45Q1499 45 1539 83Q1580 122 1580 196Q1580 268 1542 307Q1504 346 1446 346ZM1924 0L1704 0L1704 53L1780 53L1780 340L1705 340L1705 393L1853 393L1853 53L1924 53L1924 0ZM1807 479Q1785 479 1769 493Q1753 508 1753 530Q1753 552 1769 566Q1785 581 1807 581Q1830 581 1845 566Q1861 552 1861 530Q1861 508 1845 493Q1830 479 1807 479ZM2187 0L1976 0L1976 53L2049 53L2049 521L1978 521L1978 573L2123 573L2123 53L2187 53L2187 0Z" fill="#00203f" style=""></path></g></g><g transform="matrix(1,0,0,1,2.048,913.408)"><g transform="matrix(1.024,0,0,-1.024,0,0)"><path d="M277 0L39 0L39 53L117 53L117 510L39 510L39 563L277 563L277 510L199 510L199 295L431 510L367 510L367 563L600 563L600 510L526 510L282 284L530 53L605 53L605 0L364 0L364 53L430 53L199 267L199 53L277 53L277 0ZM887 0L668 0L668 53L744 53L744 340L668 340L668 393L817 393L817 276L803 278Q814 323 831 349Q849 375 871 386Q894 398 918 398Q938 398 958 393Q978 388 998 378L980 311Q963 322 946 327Q929 333 911 333Q873 333 845 301Q818 270 818 211L817 53L887 53L887 0ZM1261 0L1041 0L1041 53L1117 53L1117 340L1042 340L1042 393L1190 393L1190 53L1261 53L1261 0ZM1144 479Q1122 479 1106 493Q1090 508 1090 530Q1090 552 1106 566Q1122 581 1144 581Q1167 581 1182 566Q1198 552 1198 530Q1198 508 1182 493Q1167 479 1144 479ZM1523 -12Q1460 -12 1412 14Q1364 40 1337 87Q1311 134 1311 197Q1311 260 1337 306Q1364 353 1412 378Q1460 404 1523 404Q1587 404 1635 378Q1683 353 1710 306Q1737 260 1737 198Q1737 135 1710 88Q1683 41 1635 14Q1587 -12 1523 -12ZM1523 46Q1565 46 1596 65Q1627 84 1644 118Q1661 152 1661 198Q1661 243 1644 276Q1627 309 1596 327Q1565 346 1523 346Q1482 346 1451 327Q1421 309 1404 275Q1387 242 1387 197Q1387 152 1404 118Q1421 84 1451 65Q1482 46 1523 46ZM1970 -10Q1924 -10 1895 8Q1866 26 1852 56Q1839 86 1839 122L1839 340L1773 340L1773 393L1913 393L1913 130Q1913 93 1931 71Q1949 49 1987 49Q2031 49 2068 70Q2105 91 2138 128L2115 89L2115 340L2044 340L2044 393L2188 393L2188 53L2261 53L2261 0L2117 0L2114 65L2140 70Q2101 33 2058 11Q2016 -10 1970 -10ZM2446 -11Q2385 -11 2348 23Q2311 57 2311 106Q2311 151 2332 178Q2354 205 2390 217Q2426 229 2469 229Q2503 229 2538 223Q2574 218 2608 209L2578 204L2578 257Q2578 304 2553 326Q2528 348 2485 348Q2457 348 2419 338Q2382 329 2350 312L2328 360Q2363 382 2407 392Q2451 403 2486 403Q2538 403 2575 386Q2612 369 2631 337Q2651 306 2651 264L2651 53L2713 53L2713 0L2586 0L2580 56L2608 56Q2569 22 2532 5Q2495 -11 2446 -11ZM2457 40Q2494 40 2531 56Q2568 72 2608 105L2578 69L2578 185L2601 167Q2575 175 2542 180Q2509 185 2474 185Q2439 185 2410 169Q2381 154 2381 110Q2381 80 2401 60Q2421 40 2457 40ZM2970 0L2750 0L2750 53L2826 53L2826 340L2750 340L2750 393L2899 393L2899 339L2871 336Q2913 365 2955 384Q2997 403 3041 403Q3095 403 3132 369Q3170 336 3170 272L3170 53L3243 53L3243 0L3032 0L3032 53L3097 53L3097 258Q3097 299 3077 322Q3057 345 3022 345Q2986 345 2949 329Q2912 313 2870 285L2899 317L2899 53L2970 53L2970 0ZM3492 -12Q3430 -12 3379 14Q3329 40 3299 87Q3270 134 3270 196Q3270 260 3298 306Q3326 353 3373 378Q3420 404 3478 404Q3538 404 3581 379Q3625 354 3648 308Q3671 262 3671 200L3671 181L3335 181L3336 227L3598 227Q3598 266 3582 293Q3567 321 3540 335Q3513 350 3478 350Q3441 350 3411 332Q3381 315 3363 282Q3346 250 3346 204Q3346 155 3364 119Q3382 84 3414 64Q3447 45 3489 45Q3534 45 3572 63Q3610 81 3638 108L3664 63Q3637 32 3594 10Q3551 -12 3492 -12Z" fill="#00203f" style=""></path></g></g><g transform="matrix(2.6377,0,0,2.6377,-3800.7715,925.696)"><g transform="matrix(1.024,0,0,-1.024,0,0)"><path d="M263 0L41 0L41 53L121 53L121 510L41 510L41 563L215 563L537 108L537 510L457 510L457 563L678 563L678 510L600 510L600 0L519 0L183 479L183 53L263 53L263 0ZM981 0L743 0L743 53L821 53L821 510L743 510L743 563L981 563L981 510L903 510L903 295L1135 510L1071 510L1071 563L1304 563L1304 510L1230 510L986 284L1234 53L1309 53L1309 0L1068 0L1068 53L1134 53L903 267L903 53L981 53L981 0Z" fill="#00203f" style=""></path></g></g></g></svg>